<svg xmlns="http://www.w3.org/2000/svg" viewBox="0 0 1073.62 459.52" preserveAspectRatio="xMinYMax meet"><defs><style>.cls-1{fill:#f9f9f9;}.cls-2{fill:#f7f7f7;}.cls-3{fill:#f2f2f2;}.cls-4{fill:#ccc;}.cls-5{fill:#fff;}.cls-6{fill:#e6e6e6;}</style></defs><title>Asset 9</title><g id="Layer_2" data-name="Layer 2"><g id="Layer_1-2" data-name="Layer 1"><polygon class="cls-1" points="0 143.89 871.13 143.89 1073.62 234.6 848.64 459.52 0 459.52 0 143.89"/><polygon class="cls-2" points="272.95 320.69 248.5 350.52 317.5 386.52 498 386.52 532 355.17 503.5 320.69 272.95 320.69"/><polygon class="cls-3" points="362.58 138.39 298.43 196.77 285.12 286.48 451.67 330.81 411.28 162.2 362.58 138.39"/><polygon class="cls-4" points="477.13 143.89 451.8 331.04 411.29 161.47 477.13 143.89"/><polygon class="cls-5" points="285.12 286.48 273.14 308.63 333.74 358.24 484.21 358.24 498.1 331.04 444.27 307.31 359.22 296.18 285.12 286.48"/><polygon class="cls-6" points="399.71 331.04 411.29 358.24 484.21 358.24 498.1 331.04 444.27 307.31 347.05 294.58 399.71 331.04"/><polygon class="cls-5" points="488.26 90.28 507.36 38.2 504.46 0 452.06 38.75 452.06 38.75 425.18 23.23 398.29 38.75 398.29 38.75 345.89 0 343 38.2 362.09 90.28 351.1 102.44 347.05 130.8 425.18 168.91 503.31 130.8 499.25 102.44 488.26 90.28"/></g></g></svg>