<svg xmlns="http://www.w3.org/2000/svg" viewBox="0 0 1088.96 446.83" preserveAspectRatio="xMaxYMax meet"><defs><style>.cls-1{isolation:isolate;}.cls-2{fill:#f2f2f2;}.cls-3{fill:#ccc;}.cls-4{fill:#fff;}.cls-5{fill:#e4e3e5;mix-blend-mode:multiply;}.cls-6{fill:#e6e6e6;}</style></defs><title>mountains</title><g class="cls-1"><g id="Layer_2" data-name="Layer 2"><g id="Layer_1-2" data-name="Layer 1"><polygon class="cls-2" points="480.33 313.29 689.33 83.43 865.23 317.65 480.33 313.29"/><polygon class="cls-2" points="209.57 273.67 418.57 43.81 594.47 278.04 209.57 273.67"/><polygon class="cls-3" points="908.6 245.62 1030.97 126.91 1088.95 227.62 1088.95 420.95 908.6 245.62"/><polygon class="cls-3" points="281.96 10.27 0 402.63 0 446.83 552.23 436.47 281.96 10.27"/><polygon class="cls-4" points="281.86 10.27 334.9 94.49 322.57 162.98 273.26 123.94 234.15 178.24 184.57 145.85 281.86 10.27"/><polygon class="cls-5" points="223.26 317.76 297.23 288.31 267.78 181.47 281.86 10.27 12.78 384.81 12.78 446.62 273.26 441.95 223.26 317.76"/><polygon class="cls-6" points="826.41 0 512.25 437.15 1088.95 426.77 1088.95 380.09 826.41 0"/><polygon class="cls-4" points="826.31 0 923.91 141.15 869.34 130.77 861.81 153.37 813.41 90.14 804.28 154.97 778.25 123.92 743.08 166.85 729.02 135.58 826.31 0"/><polygon class="cls-5" points="826.31 0 842.86 137.16 783.5 202.91 832.81 278.71 754.28 335.32 817.71 431.68 512.25 437.15 826.31 0"/><polygon class="cls-3" points="259.55 445.37 573.71 8.22 843.98 434.42 259.55 445.37"/><polygon class="cls-4" points="573.6 8.22 626.64 92.43 629.18 153.16 598.13 129.41 566.17 174.16 541.51 120.28 490.38 175.07 476.31 143.8 573.6 8.22"/><polygon class="cls-5" points="573.6 8.22 521.42 213.43 546.08 278.26 452.02 349.49 565 439.89 259.55 445.37 573.6 8.22"/></g></g></g></svg>